<svg id="Capa_1" data-name="Capa 1" xmlns="http://www.w3.org/2000/svg" viewBox="0 0 766 578"><defs><style>.cls-1,.cls-2{fill:#fff;}.cls-2{font-size:149.65px;font-family:Magilio-Regular, Magilio;}.cls-3{letter-spacing:-0.04em;}.cls-4{letter-spacing:-0.03em;}.cls-5{letter-spacing:0em;}</style></defs><title>1</title><path class="cls-1" d="M758.82,42.59C748,219.28,602.53,362.65,428.77,367.88c-16,.48-16.78-.32-16.41-16.52C415.57,210.89,519.07,76.67,656.66,36.6c26.36-7.67,54.07-11.31,81.41-14.77C759.67,19.1,760.15,20.8,758.82,42.59Z"/><path class="cls-1" d="M40.39,21.58C205.13,30.9,344,162.67,362.24,327.08c.92,8.24,1.62,16.53,1.91,24.81.54,15.68-.6,16.81-16.79,16-61.37-3-118.44-20.37-169.67-54.23C81.16,249.89,27.53,160,18,44.43,16,20.28,16.56,20.23,40.39,21.58Z"/><path class="cls-1" d="M388.3,104.32A40.5,40.5,0,0,1,347.38,64C347.23,41,365.53,22.25,388.3,22.21c21.87,0,41,18.81,41.24,40.62A41.3,41.3,0,0,1,388.3,104.32Z"/><text class="cls-2" transform="translate(26.42 527.69)">Health <tspan class="cls-3" x="422.61" y="0">S</tspan><tspan class="cls-4" x="485.61" y="0">t</tspan><tspan class="cls-5" x="540.68" y="0">yle</tspan></text></svg>