<svg id="Capa_1" data-name="Capa 1" xmlns="http://www.w3.org/2000/svg" viewBox="0 0 1274 578"><defs><style>.cls-1,.cls-2{fill:#fff;}.cls-2{font-size:149.65px;font-family:Magilio-Regular, Magilio;}.cls-3{letter-spacing:-0.04em;}.cls-4{letter-spacing:-0.03em;}.cls-5{letter-spacing:0em;}</style></defs><title>2</title><path class="cls-1" d="M416.22,222.21c-4.77,77.9-68.91,141.11-145.51,143.42-7,.21-7.4-.15-7.24-7.29,1.41-61.93,47-121.1,107.71-138.77,11.62-3.38,23.83-5,35.89-6.51C416.59,211.85,416.81,212.6,416.22,222.21Z"/><path class="cls-1" d="M99.48,213c72.63,4.11,133.84,62.2,141.89,134.69.41,3.63.72,7.28.85,10.94.24,6.91-.27,7.41-7.41,7.06-27.05-1.31-52.21-9-74.8-23.91C117.45,313.61,93.81,274,89.62,223,88.74,212.37,89,212.36,99.48,213Z"/><path class="cls-1" d="M252.87,249.43a17.87,17.87,0,0,1-18.05-17.76,18.17,18.17,0,0,1,18-18.44A18.54,18.54,0,0,1,271,231.13,18.21,18.21,0,0,1,252.87,249.43Z"/><text class="cls-2" transform="translate(475.42 334.07)">Health <tspan class="cls-3" x="422.61" y="0">S</tspan><tspan class="cls-4" x="485.61" y="0">t</tspan><tspan class="cls-5" x="540.68" y="0">yle</tspan></text></svg>