<svg id="Capa_1" data-name="Capa 1" xmlns="http://www.w3.org/2000/svg" viewBox="0 0 602 310"><defs><style>.cls-1{fill:#fff;}</style></defs><title>3</title><path class="cls-1" d="M574.68,43.48c-8,130.68-115.59,236.72-244.11,240.59-11.82.36-12.41-.24-12.14-12.22C320.8,168,397.36,68.69,499.12,39.05c19.49-5.68,40-8.37,60.22-10.93C575.31,26.1,575.67,27.36,574.68,43.48Z"/><path class="cls-1" d="M43.31,27.94c121.85,6.89,224.55,104.35,238.05,226,.68,6.1,1.2,12.23,1.41,18.35.41,11.6-.44,12.44-12.41,11.86C225,281.89,182.76,269,144.86,244,73.47,196.8,33.81,130.34,26.77,44.84,25.3,27,25.69,26.94,43.31,27.94Z"/><path class="cls-1" d="M300.64,89.13a30,30,0,0,1-30.27-29.78,30.49,30.49,0,0,1,30.27-30.94c16.17,0,30.32,13.9,30.5,30A30.54,30.54,0,0,1,300.64,89.13Z"/></svg>